<?xml version="1.0" encoding="UTF-8" standalone="no"?>
<svg
   width="135.75"
   height="28"
   role="img"
   aria-label="ARDUINO IDE"
   version="1.1"
   id="svg2"
   sodipodi:docname="Plataform_IO.svg"
   xml:space="preserve"
   inkscape:version="1.3.2 (091e20ef0f, 2023-11-25)"
   xmlns:inkscape="http://www.inkscape.org/namespaces/inkscape"
   xmlns:sodipodi="http://sodipodi.sourceforge.net/DTD/sodipodi-0.dtd"
   xmlns="http://www.w3.org/2000/svg"
   xmlns:svg="http://www.w3.org/2000/svg"><defs
     id="defs2" /><sodipodi:namedview
     id="namedview2"
     pagecolor="#ffffff"
     bordercolor="#000000"
     borderopacity="0.25"
     inkscape:showpageshadow="2"
     inkscape:pageopacity="0.0"
     inkscape:pagecheckerboard="0"
     inkscape:deskcolor="#d1d1d1"
     inkscape:zoom="3.4769797"
     inkscape:cx="-15.386918"
     inkscape:cy="11.791843"
     inkscape:window-width="1920"
     inkscape:window-height="1011"
     inkscape:window-x="0"
     inkscape:window-y="32"
     inkscape:window-maximized="1"
     inkscape:current-layer="g2" /><title
     id="title1">ARDUINO IDE</title><g
     shape-rendering="crispEdges"
     id="g1"><rect
       width="135.75"
       height="28"
       fill="#00979d"
       id="rect1"
       style="fill:#ff7f00;fill-opacity:1" /></g><g
     fill="#fff"
     text-anchor="middle"
     font-family="Verdana,Geneva,DejaVu Sans,sans-serif"
     text-rendering="geometricPrecision"
     font-size="100"
     id="g2"><path
       d="m 16.965334,17.486217 c -1.18938,-1.89991 -0.68658,-6.32222 2.42063,-6.95433 0.85192,-0.13648 1.895,0.42325 2.20235,1.66668 0.77616,2.63799 -3.78979,6.33185 -4.62298,5.28765 z m -3.55927,0 c -0.83319,1.0442 -5.3991401,-2.64966 -4.6229801,-5.28765 0.30735,-1.24343 1.3504301,-1.80316 2.2023501,-1.66668 3.10721,0.63211 3.61001,5.05442 2.42063,6.95433 z m 5.55825,-11.1959101 c 0.67378,-0.0635 1.15107,-0.77778 0.8846,-1.4484 -0.29919,-0.75299 -1.30814,-0.9008 -1.81175,-0.26541 -0.41338,0.52155 -0.23557,1.25853 0.28595,1.56878 l -0.51866,1.86892 c -2.06309,-0.48252 -3.49446,-0.44693 -5.46266,0.0435 l -0.51451,-1.93506 c 0.57712,-0.36311 0.676,-1.21417 0.12804,-1.68959 -0.61201,-0.53099 -1.57588,-0.19816 -1.7308,0.59766 -0.13118,0.67387 0.39989,1.25552 1.03146,1.25721 l 0.51534,1.94066 c -2.0076201,0.66651 -4.1859101,2.1236201 -4.1859101,5.3117101 0.0446,4.60676 6.0961601,8.72748 7.4923501,8.72993 1.39384,0 7.4927,-4.21108 7.50765,-8.72993 0,-3.23775 -2.15239,-4.6916801 -4.15212,-5.3440601 z m -6.52279,8.1180601 c 0,-0.73804 -0.80445,-1.20181 -1.44454,-0.83279 -0.64008,0.36901 -0.64008,1.29656 0,1.66558 0.64009,0.36902 1.44454,-0.0948 1.44454,-0.83279 z m 7.35118,0 c 0,-0.73804 -0.80446,-1.20181 -1.44454,-0.83279 -0.64009,0.36901 -0.64009,1.29656 0,1.66558 0.64008,0.36902 1.44454,-0.0948 1.44454,-0.83279 z"
       id="path1"
       style="stroke-width:0.0353421" /><text
       transform="matrix(0.09327809,0,0,0.1,5.831418,0.58649913)"
       x="778.75"
       y="175"
       textLength="917.5"
       fill="#ffffff"
       font-weight="bold"
       id="text1"
       lengthAdjust="spacing"
       style="font-size:100px;letter-spacing:0px"
       inkscape:label="text1"><tspan
         style="font-style:normal;font-variant:normal;font-weight:800;font-stretch:normal;font-family:Inter;-inkscape-font-specification:'Inter Ultra-Bold';letter-spacing:0px"
         id="tspan2"
         rotate="0 0 0 0 0 0 0 0 0 0 0 0 0 0 0 0 0 0"
         dx="0">PLATAFORM IO</tspan></text></g></svg>
